<mxfile host="Electron" modified="2024-05-02T13:18:27.499Z" agent="Mozilla/5.0 (Macintosh; Intel Mac OS X 10_15_7) AppleWebKit/537.36 (KHTML, like Gecko) draw.io/24.2.5 Chrome/120.0.6099.109 Electron/28.1.0 Safari/537.36" etag="C7kfTq-SjdcAtIMknskd" version="24.2.5" type="device">
  <diagram name="Page-1" id="RwLVfaq6vQ3v7a4jkKFB">
    <mxGraphModel dx="1651" dy="538" grid="1" gridSize="10" guides="1" tooltips="1" connect="1" arrows="1" fold="1" page="0" pageScale="1" pageWidth="827" pageHeight="1169" math="0" shadow="0">
      <root>
        <mxCell id="0" />
        <mxCell id="1" parent="0" />
        <mxCell id="Cq1qP3kVPtpyzU3jWSy7-1" value="" style="rounded=0;whiteSpace=wrap;html=1;fillColor=#f5f5f5;fontColor=#333333;strokeColor=#666666;" vertex="1" parent="1">
          <mxGeometry x="-30" y="170" width="940" height="740" as="geometry" />
        </mxCell>
        <mxCell id="Cq1qP3kVPtpyzU3jWSy7-2" value="Cluster" style="text;html=1;align=center;verticalAlign=middle;resizable=0;points=[];autosize=1;strokeColor=none;fillColor=none;fontSize=16;" vertex="1" parent="1">
          <mxGeometry x="-10" y="190" width="70" height="30" as="geometry" />
        </mxCell>
        <mxCell id="Cq1qP3kVPtpyzU3jWSy7-3" value="" style="rounded=1;whiteSpace=wrap;html=1;" vertex="1" parent="1">
          <mxGeometry y="385" width="300" height="310" as="geometry" />
        </mxCell>
        <mxCell id="Cq1qP3kVPtpyzU3jWSy7-4" value="kube-api-server" style="rounded=1;whiteSpace=wrap;html=1;fillColor=#dae8fc;strokeColor=#6c8ebf;" vertex="1" parent="1">
          <mxGeometry x="170" y="420" width="110" height="170" as="geometry" />
        </mxCell>
        <mxCell id="Cq1qP3kVPtpyzU3jWSy7-12" style="edgeStyle=none;curved=1;rounded=0;orthogonalLoop=1;jettySize=auto;html=1;entryX=0.009;entryY=0.294;entryDx=0;entryDy=0;fontSize=12;startSize=8;endSize=8;exitX=1;exitY=0.5;exitDx=0;exitDy=0;exitPerimeter=0;entryPerimeter=0;" edge="1" parent="1" source="Cq1qP3kVPtpyzU3jWSy7-6" target="Cq1qP3kVPtpyzU3jWSy7-4">
          <mxGeometry relative="1" as="geometry" />
        </mxCell>
        <mxCell id="Cq1qP3kVPtpyzU3jWSy7-6" value="etcd" style="shape=cylinder3;whiteSpace=wrap;html=1;boundedLbl=1;backgroundOutline=1;size=15;fillColor=#dae8fc;strokeColor=#6c8ebf;" vertex="1" parent="1">
          <mxGeometry x="45" y="440" width="80" height="60" as="geometry" />
        </mxCell>
        <mxCell id="Cq1qP3kVPtpyzU3jWSy7-7" value="kube-scheduler" style="rounded=1;whiteSpace=wrap;html=1;fillColor=#dae8fc;strokeColor=#6c8ebf;" vertex="1" parent="1">
          <mxGeometry x="30" y="530" width="110" height="60" as="geometry" />
        </mxCell>
        <mxCell id="Cq1qP3kVPtpyzU3jWSy7-11" style="edgeStyle=none;curved=0;rounded=0;orthogonalLoop=1;jettySize=auto;html=1;entryX=0.5;entryY=1;entryDx=0;entryDy=0;fontSize=12;startSize=8;endSize=8;" edge="1" parent="1" source="Cq1qP3kVPtpyzU3jWSy7-8" target="Cq1qP3kVPtpyzU3jWSy7-4">
          <mxGeometry relative="1" as="geometry">
            <Array as="points">
              <mxPoint x="225" y="645" />
            </Array>
          </mxGeometry>
        </mxCell>
        <mxCell id="Cq1qP3kVPtpyzU3jWSy7-8" value="kube-controller-manager" style="rounded=1;whiteSpace=wrap;html=1;fillColor=#dae8fc;strokeColor=#6c8ebf;" vertex="1" parent="1">
          <mxGeometry x="30" y="615" width="160" height="60" as="geometry" />
        </mxCell>
        <mxCell id="Cq1qP3kVPtpyzU3jWSy7-9" style="edgeStyle=none;curved=1;rounded=0;orthogonalLoop=1;jettySize=auto;html=1;exitX=0.5;exitY=0;exitDx=0;exitDy=0;fontSize=12;startSize=8;endSize=8;" edge="1" parent="1" source="Cq1qP3kVPtpyzU3jWSy7-3" target="Cq1qP3kVPtpyzU3jWSy7-3">
          <mxGeometry relative="1" as="geometry" />
        </mxCell>
        <mxCell id="Cq1qP3kVPtpyzU3jWSy7-10" value="Control plane" style="text;html=1;align=center;verticalAlign=middle;resizable=0;points=[];autosize=1;strokeColor=none;fillColor=none;fontSize=16;" vertex="1" parent="1">
          <mxGeometry x="20" y="395" width="120" height="30" as="geometry" />
        </mxCell>
        <mxCell id="Cq1qP3kVPtpyzU3jWSy7-14" style="edgeStyle=none;curved=1;rounded=0;orthogonalLoop=1;jettySize=auto;html=1;entryX=0.009;entryY=0.824;entryDx=0;entryDy=0;entryPerimeter=0;fontSize=12;startSize=8;endSize=8;" edge="1" parent="1" source="Cq1qP3kVPtpyzU3jWSy7-7" target="Cq1qP3kVPtpyzU3jWSy7-4">
          <mxGeometry relative="1" as="geometry" />
        </mxCell>
        <mxCell id="Cq1qP3kVPtpyzU3jWSy7-15" value="" style="rounded=1;whiteSpace=wrap;html=1;" vertex="1" parent="1">
          <mxGeometry x="390" y="190" width="490" height="220" as="geometry" />
        </mxCell>
        <mxCell id="Cq1qP3kVPtpyzU3jWSy7-16" value="Node 01" style="text;html=1;align=center;verticalAlign=middle;resizable=0;points=[];autosize=1;strokeColor=none;fillColor=none;fontSize=16;" vertex="1" parent="1">
          <mxGeometry x="405" y="200" width="80" height="30" as="geometry" />
        </mxCell>
        <mxCell id="Cq1qP3kVPtpyzU3jWSy7-23" style="edgeStyle=none;curved=0;rounded=0;orthogonalLoop=1;jettySize=auto;html=1;fontSize=12;startSize=8;endSize=8;endArrow=none;endFill=0;" edge="1" parent="1" source="Cq1qP3kVPtpyzU3jWSy7-17">
          <mxGeometry relative="1" as="geometry">
            <mxPoint x="610" y="300" as="targetPoint" />
            <Array as="points">
              <mxPoint x="610" y="340" />
            </Array>
          </mxGeometry>
        </mxCell>
        <mxCell id="Cq1qP3kVPtpyzU3jWSy7-54" style="edgeStyle=none;curved=1;rounded=0;orthogonalLoop=1;jettySize=auto;html=1;fontSize=12;startSize=8;endSize=8;endArrow=none;endFill=0;dashed=1;" edge="1" parent="1" source="Cq1qP3kVPtpyzU3jWSy7-17">
          <mxGeometry relative="1" as="geometry">
            <mxPoint x="340" y="340" as="targetPoint" />
          </mxGeometry>
        </mxCell>
        <mxCell id="Cq1qP3kVPtpyzU3jWSy7-17" value="kubelet" style="rounded=1;whiteSpace=wrap;html=1;fillColor=#d5e8d4;strokeColor=#82b366;" vertex="1" parent="1">
          <mxGeometry x="420" y="310" width="160" height="60" as="geometry" />
        </mxCell>
        <mxCell id="Cq1qP3kVPtpyzU3jWSy7-21" style="edgeStyle=none;curved=0;rounded=0;orthogonalLoop=1;jettySize=auto;html=1;entryX=0;entryY=0.5;entryDx=0;entryDy=0;fontSize=12;startSize=8;endSize=8;" edge="1" parent="1" source="Cq1qP3kVPtpyzU3jWSy7-18" target="Cq1qP3kVPtpyzU3jWSy7-20">
          <mxGeometry relative="1" as="geometry">
            <Array as="points">
              <mxPoint x="610" y="265" />
              <mxPoint x="610" y="300" />
            </Array>
          </mxGeometry>
        </mxCell>
        <mxCell id="Cq1qP3kVPtpyzU3jWSy7-18" value="kube-proxy" style="rounded=1;whiteSpace=wrap;html=1;fillColor=#f8cecc;strokeColor=#b85450;" vertex="1" parent="1">
          <mxGeometry x="420" y="235" width="160" height="60" as="geometry" />
        </mxCell>
        <mxCell id="Cq1qP3kVPtpyzU3jWSy7-19" value="" style="rounded=0;whiteSpace=wrap;html=1;" vertex="1" parent="1">
          <mxGeometry x="660" y="210" width="190" height="180" as="geometry" />
        </mxCell>
        <mxCell id="Cq1qP3kVPtpyzU3jWSy7-20" value="CRI" style="rounded=1;whiteSpace=wrap;html=1;dashed=1;fillColor=#f5f5f5;strokeColor=#666666;fontColor=#333333;" vertex="1" parent="1">
          <mxGeometry x="650" y="235" width="30" height="130" as="geometry" />
        </mxCell>
        <mxCell id="Cq1qP3kVPtpyzU3jWSy7-24" value="pod" style="shape=cube;whiteSpace=wrap;html=1;boundedLbl=1;backgroundOutline=1;darkOpacity=0.05;darkOpacity2=0.1;" vertex="1" parent="1">
          <mxGeometry x="700" y="240" width="70" height="50" as="geometry" />
        </mxCell>
        <mxCell id="Cq1qP3kVPtpyzU3jWSy7-25" value="pod" style="shape=cube;whiteSpace=wrap;html=1;boundedLbl=1;backgroundOutline=1;darkOpacity=0.05;darkOpacity2=0.1;" vertex="1" parent="1">
          <mxGeometry x="760" y="315" width="70" height="50" as="geometry" />
        </mxCell>
        <mxCell id="Cq1qP3kVPtpyzU3jWSy7-26" value="" style="rounded=1;whiteSpace=wrap;html=1;" vertex="1" parent="1">
          <mxGeometry x="390" y="430" width="490" height="220" as="geometry" />
        </mxCell>
        <mxCell id="Cq1qP3kVPtpyzU3jWSy7-27" value="Node 02" style="text;html=1;align=center;verticalAlign=middle;resizable=0;points=[];autosize=1;strokeColor=none;fillColor=none;fontSize=16;" vertex="1" parent="1">
          <mxGeometry x="405" y="440" width="80" height="30" as="geometry" />
        </mxCell>
        <mxCell id="Cq1qP3kVPtpyzU3jWSy7-28" style="edgeStyle=none;curved=0;rounded=0;orthogonalLoop=1;jettySize=auto;html=1;fontSize=12;startSize=8;endSize=8;endArrow=none;endFill=0;" edge="1" parent="1" source="Cq1qP3kVPtpyzU3jWSy7-29">
          <mxGeometry relative="1" as="geometry">
            <mxPoint x="610" y="540" as="targetPoint" />
            <Array as="points">
              <mxPoint x="610" y="580" />
            </Array>
          </mxGeometry>
        </mxCell>
        <mxCell id="Cq1qP3kVPtpyzU3jWSy7-52" style="edgeStyle=none;curved=1;rounded=0;orthogonalLoop=1;jettySize=auto;html=1;fontSize=12;startSize=8;endSize=8;endArrow=none;endFill=0;dashed=1;" edge="1" parent="1" source="Cq1qP3kVPtpyzU3jWSy7-29">
          <mxGeometry relative="1" as="geometry">
            <mxPoint x="340" y="580" as="targetPoint" />
          </mxGeometry>
        </mxCell>
        <mxCell id="Cq1qP3kVPtpyzU3jWSy7-29" value="kubelet" style="rounded=1;whiteSpace=wrap;html=1;fillColor=#d5e8d4;strokeColor=#82b366;" vertex="1" parent="1">
          <mxGeometry x="420" y="550" width="160" height="60" as="geometry" />
        </mxCell>
        <mxCell id="Cq1qP3kVPtpyzU3jWSy7-30" style="edgeStyle=none;curved=0;rounded=0;orthogonalLoop=1;jettySize=auto;html=1;entryX=0;entryY=0.5;entryDx=0;entryDy=0;fontSize=12;startSize=8;endSize=8;" edge="1" parent="1" source="Cq1qP3kVPtpyzU3jWSy7-31" target="Cq1qP3kVPtpyzU3jWSy7-33">
          <mxGeometry relative="1" as="geometry">
            <Array as="points">
              <mxPoint x="610" y="505" />
              <mxPoint x="610" y="540" />
            </Array>
          </mxGeometry>
        </mxCell>
        <mxCell id="Cq1qP3kVPtpyzU3jWSy7-53" style="edgeStyle=none;curved=1;rounded=0;orthogonalLoop=1;jettySize=auto;html=1;fontSize=12;startSize=8;endSize=8;endArrow=none;endFill=0;dashed=1;" edge="1" parent="1" source="Cq1qP3kVPtpyzU3jWSy7-31">
          <mxGeometry relative="1" as="geometry">
            <mxPoint x="340" y="505" as="targetPoint" />
          </mxGeometry>
        </mxCell>
        <mxCell id="Cq1qP3kVPtpyzU3jWSy7-31" value="kube-proxy" style="rounded=1;whiteSpace=wrap;html=1;fillColor=#f8cecc;strokeColor=#b85450;" vertex="1" parent="1">
          <mxGeometry x="420" y="475" width="160" height="60" as="geometry" />
        </mxCell>
        <mxCell id="Cq1qP3kVPtpyzU3jWSy7-32" value="" style="rounded=0;whiteSpace=wrap;html=1;" vertex="1" parent="1">
          <mxGeometry x="660" y="450" width="190" height="180" as="geometry" />
        </mxCell>
        <mxCell id="Cq1qP3kVPtpyzU3jWSy7-33" value="CRI" style="rounded=1;whiteSpace=wrap;html=1;dashed=1;fillColor=#f5f5f5;strokeColor=#666666;fontColor=#333333;" vertex="1" parent="1">
          <mxGeometry x="650" y="475" width="30" height="130" as="geometry" />
        </mxCell>
        <mxCell id="Cq1qP3kVPtpyzU3jWSy7-35" value="pod" style="shape=cube;whiteSpace=wrap;html=1;boundedLbl=1;backgroundOutline=1;darkOpacity=0.05;darkOpacity2=0.1;" vertex="1" parent="1">
          <mxGeometry x="730" y="515" width="70" height="50" as="geometry" />
        </mxCell>
        <mxCell id="Cq1qP3kVPtpyzU3jWSy7-36" value="" style="rounded=1;whiteSpace=wrap;html=1;" vertex="1" parent="1">
          <mxGeometry x="390" y="670" width="490" height="220" as="geometry" />
        </mxCell>
        <mxCell id="Cq1qP3kVPtpyzU3jWSy7-37" value="Node 03" style="text;html=1;align=center;verticalAlign=middle;resizable=0;points=[];autosize=1;strokeColor=none;fillColor=none;fontSize=16;" vertex="1" parent="1">
          <mxGeometry x="405" y="680" width="80" height="30" as="geometry" />
        </mxCell>
        <mxCell id="Cq1qP3kVPtpyzU3jWSy7-38" style="edgeStyle=none;curved=0;rounded=0;orthogonalLoop=1;jettySize=auto;html=1;fontSize=12;startSize=8;endSize=8;endArrow=none;endFill=0;" edge="1" parent="1" source="Cq1qP3kVPtpyzU3jWSy7-39">
          <mxGeometry relative="1" as="geometry">
            <mxPoint x="610" y="780" as="targetPoint" />
            <Array as="points">
              <mxPoint x="610" y="820" />
            </Array>
          </mxGeometry>
        </mxCell>
        <mxCell id="Cq1qP3kVPtpyzU3jWSy7-51" style="edgeStyle=none;curved=0;rounded=0;orthogonalLoop=1;jettySize=auto;html=1;fontSize=12;startSize=8;endSize=8;exitX=0;exitY=0.5;exitDx=0;exitDy=0;endArrow=none;endFill=0;dashed=1;" edge="1" parent="1" source="Cq1qP3kVPtpyzU3jWSy7-39">
          <mxGeometry relative="1" as="geometry">
            <mxPoint x="340" y="740" as="targetPoint" />
            <Array as="points">
              <mxPoint x="340" y="820" />
            </Array>
          </mxGeometry>
        </mxCell>
        <mxCell id="Cq1qP3kVPtpyzU3jWSy7-39" value="kubelet" style="rounded=1;whiteSpace=wrap;html=1;fillColor=#d5e8d4;strokeColor=#82b366;" vertex="1" parent="1">
          <mxGeometry x="420" y="790" width="160" height="60" as="geometry" />
        </mxCell>
        <mxCell id="Cq1qP3kVPtpyzU3jWSy7-40" style="edgeStyle=none;curved=0;rounded=0;orthogonalLoop=1;jettySize=auto;html=1;entryX=0;entryY=0.5;entryDx=0;entryDy=0;fontSize=12;startSize=8;endSize=8;" edge="1" parent="1" source="Cq1qP3kVPtpyzU3jWSy7-41" target="Cq1qP3kVPtpyzU3jWSy7-43">
          <mxGeometry relative="1" as="geometry">
            <Array as="points">
              <mxPoint x="610" y="745" />
              <mxPoint x="610" y="780" />
            </Array>
          </mxGeometry>
        </mxCell>
        <mxCell id="Cq1qP3kVPtpyzU3jWSy7-41" value="kube-proxy" style="rounded=1;whiteSpace=wrap;html=1;fillColor=#f8cecc;strokeColor=#b85450;" vertex="1" parent="1">
          <mxGeometry x="420" y="715" width="160" height="60" as="geometry" />
        </mxCell>
        <mxCell id="Cq1qP3kVPtpyzU3jWSy7-42" value="" style="rounded=0;whiteSpace=wrap;html=1;" vertex="1" parent="1">
          <mxGeometry x="660" y="690" width="190" height="180" as="geometry" />
        </mxCell>
        <mxCell id="Cq1qP3kVPtpyzU3jWSy7-43" value="CRI" style="rounded=1;whiteSpace=wrap;html=1;dashed=1;fillColor=#f5f5f5;strokeColor=#666666;fontColor=#333333;" vertex="1" parent="1">
          <mxGeometry x="650" y="715" width="30" height="130" as="geometry" />
        </mxCell>
        <mxCell id="Cq1qP3kVPtpyzU3jWSy7-44" value="pod" style="shape=cube;whiteSpace=wrap;html=1;boundedLbl=1;backgroundOutline=1;darkOpacity=0.05;darkOpacity2=0.1;" vertex="1" parent="1">
          <mxGeometry x="700" y="710" width="70" height="50" as="geometry" />
        </mxCell>
        <mxCell id="Cq1qP3kVPtpyzU3jWSy7-45" value="pod" style="shape=cube;whiteSpace=wrap;html=1;boundedLbl=1;backgroundOutline=1;darkOpacity=0.05;darkOpacity2=0.1;" vertex="1" parent="1">
          <mxGeometry x="770" y="770" width="70" height="50" as="geometry" />
        </mxCell>
        <mxCell id="Cq1qP3kVPtpyzU3jWSy7-46" value="pod" style="shape=cube;whiteSpace=wrap;html=1;boundedLbl=1;backgroundOutline=1;darkOpacity=0.05;darkOpacity2=0.1;" vertex="1" parent="1">
          <mxGeometry x="700" y="810" width="70" height="50" as="geometry" />
        </mxCell>
        <mxCell id="Cq1qP3kVPtpyzU3jWSy7-48" style="edgeStyle=none;curved=0;rounded=0;orthogonalLoop=1;jettySize=auto;html=1;fontSize=12;startSize=8;endSize=8;endArrow=none;endFill=0;exitX=0;exitY=0.5;exitDx=0;exitDy=0;dashed=1;" edge="1" parent="1" source="Cq1qP3kVPtpyzU3jWSy7-41">
          <mxGeometry relative="1" as="geometry">
            <mxPoint x="340" y="500" as="targetPoint" />
            <Array as="points">
              <mxPoint x="340" y="745" />
            </Array>
          </mxGeometry>
        </mxCell>
        <mxCell id="Cq1qP3kVPtpyzU3jWSy7-47" style="edgeStyle=none;curved=0;rounded=0;orthogonalLoop=1;jettySize=auto;html=1;exitX=0;exitY=0.5;exitDx=0;exitDy=0;entryX=1;entryY=0.5;entryDx=0;entryDy=0;fontSize=12;startSize=8;endSize=8;dashed=1;" edge="1" parent="1" source="Cq1qP3kVPtpyzU3jWSy7-18" target="Cq1qP3kVPtpyzU3jWSy7-4">
          <mxGeometry relative="1" as="geometry">
            <Array as="points">
              <mxPoint x="340" y="265" />
              <mxPoint x="340" y="505" />
            </Array>
          </mxGeometry>
        </mxCell>
      </root>
    </mxGraphModel>
  </diagram>
</mxfile>
